<svg xmlns="http://www.w3.org/2000/svg" viewBox="0 0 64 64">
  <!-- Dark background -->
  <rect width="64" height="64" rx="14" fill="#0a0a0a"/>
  <!-- Inner gold glow (bottom-right) -->
  <radialGradient id="g" cx="70%" cy="80%" r="50%">
    <stop offset="0%" stop-color="#D4A853" stop-opacity="0.18"/>
    <stop offset="100%" stop-color="#D4A853" stop-opacity="0"/>
  </radialGradient>
  <rect width="64" height="64" rx="14" fill="url(#g)"/>
  <!-- Brand mark: laurel + T -->
  <g fill="none" stroke="#D4A853" stroke-width="1.5" stroke-linecap="round" stroke-linejoin="round">
    <path d="M14 32c0-9 5-15 13-18M14 32c0 9 5 15 13 18"/>
    <path d="M16 24c2 0 4-1 5-3M14 32c2 1 4 1 6 0M16 40c2 0 4 1 5 3"/>
    <path d="M19 18c1.5 1 3 1 5 0M19 46c1.5-1 3-1 5 0"/>
    <path d="M50 32c0-9-5-15-13-18M50 32c0 9-5 15-13 18"/>
    <path d="M48 24c-2 0-4-1-5-3M50 32c-2 1-4 1-6 0M48 40c-2 0-4 1-5 3"/>
    <path d="M45 18c-1.5 1-3 1-5 0M45 46c-1.5-1-3-1-5 0"/>
    <path d="M27 22h10M32 22v18" stroke-width="2"/>
  </g>
</svg>
