<svg xmlns="http://www.w3.org/2000/svg" width="0" height="0" style="display:none">
<defs>

<!-- ═══ BRAND ═══════════════════════════════════════════════════════ -->

<!-- Laurel wreath + T — 64×64 viewBox -->
<symbol id="brand-mark" viewBox="0 0 64 64">
  <g fill="none" stroke="currentColor" stroke-width="1.5" stroke-linecap="round" stroke-linejoin="round">
    <path d="M14 32c0-9 5-15 13-18M14 32c0 9 5 15 13 18"/>
    <path d="M16 24c2 0 4-1 5-3M14 32c2 1 4 1 6 0M16 40c2 0 4 1 5 3"/>
    <path d="M19 18c1.5 1 3 1 5 0M19 46c1.5-1 3-1 5 0"/>
    <path d="M50 32c0-9-5-15-13-18M50 32c0 9-5 15-13 18"/>
    <path d="M48 24c-2 0-4-1-5-3M50 32c-2 1-4 1-6 0M48 40c-2 0-4 1-5 3"/>
    <path d="M45 18c-1.5 1-3 1-5 0M45 46c-1.5-1-3-1-5 0"/>
    <path d="M27 22h10M32 22v18" stroke-width="2"/>
  </g>
</symbol>

<!-- Compact monogram — 32×32 viewBox -->
<symbol id="brand-mono" viewBox="0 0 32 32">
  <g fill="none" stroke="currentColor" stroke-linecap="round" stroke-linejoin="round">
    <path d="M9 11h14" stroke-width="2"/>
    <path d="M16 11v12" stroke-width="2"/>
    <path d="M13 8h6" stroke-width="1.4"/>
  </g>
</symbol>

<!-- ═══ NAVIGATION ════════════════════════════════════════════════════ -->
<symbol id="i-home" viewBox="0 0 24 24" fill="none" stroke="currentColor" stroke-width="1.6" stroke-linecap="round" stroke-linejoin="round"><path d="M3 11l9-7 9 7v9a2 2 0 01-2 2h-4v-7h-6v7H5a2 2 0 01-2-2v-9z"/></symbol>
<symbol id="i-book" viewBox="0 0 24 24" fill="none" stroke="currentColor" stroke-width="1.6" stroke-linecap="round" stroke-linejoin="round"><path d="M4 19.5v-15a2 2 0 012-2h13v18H6a2 2 0 010-4h13"/></symbol>
<symbol id="i-chart" viewBox="0 0 24 24" fill="none" stroke="currentColor" stroke-width="1.6" stroke-linecap="round" stroke-linejoin="round"><path d="M3 21V3M21 21H3M7 14l4-4 4 3 5-7"/></symbol>
<symbol id="i-user" viewBox="0 0 24 24" fill="none" stroke="currentColor" stroke-width="1.6" stroke-linecap="round" stroke-linejoin="round"><circle cx="12" cy="8" r="4"/><path d="M4 21c0-4 4-7 8-7s8 3 8 7"/></symbol>
<symbol id="i-users" viewBox="0 0 24 24" fill="none" stroke="currentColor" stroke-width="1.6" stroke-linecap="round" stroke-linejoin="round"><circle cx="9" cy="8" r="3.5"/><circle cx="17" cy="9" r="2.5"/><path d="M3 20c0-3 3-5 6-5s6 2 6 5M15 16c0-1.5 2-3 4-3s3 1 3 3"/></symbol>
<symbol id="i-grid" viewBox="0 0 24 24" fill="none" stroke="currentColor" stroke-width="1.6" stroke-linecap="round" stroke-linejoin="round"><rect x="3" y="3" width="7" height="7" rx="1"/><rect x="14" y="3" width="7" height="7" rx="1"/><rect x="3" y="14" width="7" height="7" rx="1"/><rect x="14" y="14" width="7" height="7" rx="1"/></symbol>
<symbol id="i-list" viewBox="0 0 24 24" fill="none" stroke="currentColor" stroke-width="1.6" stroke-linecap="round" stroke-linejoin="round"><path d="M8 6h13M8 12h13M8 18h13M3 6h.01M3 12h.01M3 18h.01"/></symbol>
<symbol id="i-folder" viewBox="0 0 24 24" fill="none" stroke="currentColor" stroke-width="1.6" stroke-linecap="round" stroke-linejoin="round"><path d="M3 7a2 2 0 012-2h4l2 2h8a2 2 0 012 2v8a2 2 0 01-2 2H5a2 2 0 01-2-2V7z"/></symbol>

<!-- ═══ ACTIONS ════════════════════════════════════════════════════════ -->
<symbol id="i-plus" viewBox="0 0 24 24" fill="none" stroke="currentColor" stroke-width="2" stroke-linecap="round"><path d="M12 5v14M5 12h14"/></symbol>
<symbol id="i-check" viewBox="0 0 24 24" fill="none" stroke="currentColor" stroke-width="2" stroke-linecap="round" stroke-linejoin="round"><path d="M4 12l5 5L20 6"/></symbol>
<symbol id="i-x" viewBox="0 0 24 24" fill="none" stroke="currentColor" stroke-width="2" stroke-linecap="round"><path d="M6 6l12 12M18 6L6 18"/></symbol>
<symbol id="i-arrow-r" viewBox="0 0 24 24" fill="none" stroke="currentColor" stroke-width="1.8" stroke-linecap="round" stroke-linejoin="round"><path d="M5 12h14M13 6l6 6-6 6"/></symbol>
<symbol id="i-arrow-up" viewBox="0 0 24 24" fill="none" stroke="currentColor" stroke-width="2" stroke-linecap="round" stroke-linejoin="round"><path d="M12 19V5M5 12l7-7 7 7"/></symbol>
<symbol id="i-arrow-down" viewBox="0 0 24 24" fill="none" stroke="currentColor" stroke-width="2" stroke-linecap="round" stroke-linejoin="round"><path d="M12 5v14M5 12l7 7 7-7"/></symbol>
<symbol id="i-chev-r" viewBox="0 0 24 24" fill="none" stroke="currentColor" stroke-width="1.8" stroke-linecap="round" stroke-linejoin="round"><path d="M9 6l6 6-6 6"/></symbol>
<symbol id="i-chev-l" viewBox="0 0 24 24" fill="none" stroke="currentColor" stroke-width="1.8" stroke-linecap="round" stroke-linejoin="round"><path d="M15 6l-6 6 6 6"/></symbol>
<symbol id="i-chev-d" viewBox="0 0 24 24" fill="none" stroke="currentColor" stroke-width="1.8" stroke-linecap="round" stroke-linejoin="round"><path d="M6 9l6 6 6-6"/></symbol>
<symbol id="i-search" viewBox="0 0 24 24" fill="none" stroke="currentColor" stroke-width="1.6" stroke-linecap="round"><circle cx="11" cy="11" r="7"/><path d="M16 16l5 5"/></symbol>
<symbol id="i-filter" viewBox="0 0 24 24" fill="none" stroke="currentColor" stroke-width="1.6" stroke-linecap="round" stroke-linejoin="round"><path d="M3 5h18l-7 9v6l-4-2v-4L3 5z"/></symbol>
<symbol id="i-edit" viewBox="0 0 24 24" fill="none" stroke="currentColor" stroke-width="1.6" stroke-linecap="round" stroke-linejoin="round"><path d="M4 20h4l11-11-4-4L4 16v4zM14 5l4 4"/></symbol>
<symbol id="i-trash" viewBox="0 0 24 24" fill="none" stroke="currentColor" stroke-width="1.6" stroke-linecap="round" stroke-linejoin="round"><path d="M3 6h18M8 6V4a2 2 0 012-2h4a2 2 0 012 2v2M6 6v14a2 2 0 002 2h8a2 2 0 002-2V6M10 11v6M14 11v6"/></symbol>
<symbol id="i-more" viewBox="0 0 24 24" fill="currentColor"><circle cx="5" cy="12" r="1.5"/><circle cx="12" cy="12" r="1.5"/><circle cx="19" cy="12" r="1.5"/></symbol>
<symbol id="i-settings" viewBox="0 0 24 24" fill="none" stroke="currentColor" stroke-width="1.5" stroke-linecap="round" stroke-linejoin="round"><circle cx="12" cy="12" r="3"/><path d="M19.4 15a1.65 1.65 0 00.33 1.82l.06.06a2 2 0 01-2.83 2.83l-.06-.06a1.65 1.65 0 00-1.82-.33 1.65 1.65 0 00-1 1.51V21a2 2 0 11-4 0v-.09a1.65 1.65 0 00-1-1.51 1.65 1.65 0 00-1.82.33l-.06.06a2 2 0 11-2.83-2.83l.06-.06a1.65 1.65 0 00.33-1.82 1.65 1.65 0 00-1.51-1H3a2 2 0 110-4h.09a1.65 1.65 0 001.51-1 1.65 1.65 0 00-.33-1.82l-.06-.06a2 2 0 112.83-2.83l.06.06a1.65 1.65 0 001.82.33h.01a1.65 1.65 0 001-1.51V3a2 2 0 014 0v.09a1.65 1.65 0 001 1.51 1.65 1.65 0 001.82-.33l.06-.06a2 2 0 112.83 2.83l-.06.06a1.65 1.65 0 00-.33 1.82v.01a1.65 1.65 0 001.51 1H21a2 2 0 110 4h-.09a1.65 1.65 0 00-1.51 1z"/></symbol>
<symbol id="i-share" viewBox="0 0 24 24" fill="none" stroke="currentColor" stroke-width="1.6" stroke-linecap="round" stroke-linejoin="round"><circle cx="18" cy="5" r="3"/><circle cx="6" cy="12" r="3"/><circle cx="18" cy="19" r="3"/><path d="M8.5 10.5l7-4M8.5 13.5l7 4"/></symbol>
<symbol id="i-copy" viewBox="0 0 24 24" fill="none" stroke="currentColor" stroke-width="1.6" stroke-linecap="round" stroke-linejoin="round"><rect x="9" y="9" width="11" height="11" rx="2"/><path d="M5 15V5a2 2 0 012-2h10"/></symbol>
<symbol id="i-download" viewBox="0 0 24 24" fill="none" stroke="currentColor" stroke-width="1.6" stroke-linecap="round" stroke-linejoin="round"><path d="M12 3v14M5 12l7 7 7-7M3 21h18"/></symbol>
<symbol id="i-upload" viewBox="0 0 24 24" fill="none" stroke="currentColor" stroke-width="1.6" stroke-linecap="round" stroke-linejoin="round"><path d="M12 21V7M5 12l7-7 7 7M3 3h18"/></symbol>
<symbol id="i-refresh" viewBox="0 0 24 24" fill="none" stroke="currentColor" stroke-width="1.6" stroke-linecap="round" stroke-linejoin="round"><path d="M3 12a9 9 0 0115-6.7L21 8M21 4v4h-4M21 12a9 9 0 01-15 6.7L3 16M3 20v-4h4"/></symbol>

<!-- ═══ COMMUNICATION ════════════════════════════════════════════════ -->
<symbol id="i-bell" viewBox="0 0 24 24" fill="none" stroke="currentColor" stroke-width="1.6" stroke-linecap="round" stroke-linejoin="round"><path d="M6 8a6 6 0 1112 0c0 7 3 9 3 9H3s3-2 3-9zM10 21a2 2 0 004 0"/></symbol>
<symbol id="i-message" viewBox="0 0 24 24" fill="none" stroke="currentColor" stroke-width="1.6" stroke-linecap="round" stroke-linejoin="round"><path d="M21 15a3 3 0 01-3 3H8l-5 4V6a3 3 0 013-3h12a3 3 0 013 3v9z"/></symbol>
<symbol id="i-send" viewBox="0 0 24 24" fill="none" stroke="currentColor" stroke-width="1.6" stroke-linecap="round" stroke-linejoin="round"><path d="M22 2L11 13M22 2l-7 20-4-9-9-4 20-7z"/></symbol>
<symbol id="i-mail" viewBox="0 0 24 24" fill="none" stroke="currentColor" stroke-width="1.6" stroke-linecap="round" stroke-linejoin="round"><rect x="3" y="5" width="18" height="14" rx="2"/><path d="M3 7l9 7 9-7"/></symbol>
<symbol id="i-phone" viewBox="0 0 24 24" fill="none" stroke="currentColor" stroke-width="1.6" stroke-linecap="round" stroke-linejoin="round"><path d="M5 4h4l2 5-3 2a12 12 0 006 6l2-3 5 2v4a2 2 0 01-2 2A18 18 0 013 6a2 2 0 012-2z"/></symbol>
<symbol id="i-camera" viewBox="0 0 24 24" fill="none" stroke="currentColor" stroke-width="1.6" stroke-linecap="round" stroke-linejoin="round"><path d="M3 7h4l2-3h6l2 3h4v13H3V7z"/><circle cx="12" cy="13" r="4"/></symbol>
<symbol id="i-mic" viewBox="0 0 24 24" fill="none" stroke="currentColor" stroke-width="1.6" stroke-linecap="round" stroke-linejoin="round"><rect x="9" y="3" width="6" height="12" rx="3"/><path d="M5 11a7 7 0 0014 0M12 18v3"/></symbol>
<symbol id="i-image" viewBox="0 0 24 24" fill="none" stroke="currentColor" stroke-width="1.6" stroke-linecap="round" stroke-linejoin="round"><rect x="3" y="3" width="18" height="18" rx="2"/><circle cx="8.5" cy="8.5" r="1.5"/><path d="M21 15l-5-5L5 21"/></symbol>

<!-- ═══ DOMAIN — NOURISHMENT & TRAINING ════════════════════════════ -->
<symbol id="i-flame" viewBox="0 0 24 24" fill="none" stroke="currentColor" stroke-width="1.6" stroke-linecap="round" stroke-linejoin="round"><path d="M12 2c0 4-3 5-3 9a5 5 0 0010 0c0-3-2-4-3-7-1 2-3 2-4-2zM12 17a2 2 0 002-2"/></symbol>
<symbol id="i-drop" viewBox="0 0 24 24" fill="none" stroke="currentColor" stroke-width="1.6" stroke-linecap="round" stroke-linejoin="round"><path d="M12 2c5 7 7 10 7 13a7 7 0 11-14 0c0-3 2-6 7-13z"/></symbol>
<symbol id="i-leaf" viewBox="0 0 24 24" fill="none" stroke="currentColor" stroke-width="1.6" stroke-linecap="round" stroke-linejoin="round"><path d="M3 21c0-9 7-16 18-18-1 11-8 18-18 18zM3 21l8-8"/></symbol>
<symbol id="i-bowl" viewBox="0 0 24 24" fill="none" stroke="currentColor" stroke-width="1.6" stroke-linecap="round" stroke-linejoin="round"><path d="M3 11h18l-1 5a4 4 0 01-4 3H8a4 4 0 01-4-3l-1-5zM7 7l2-2M12 5v3M16 7l-2-2"/></symbol>
<symbol id="i-apple" viewBox="0 0 24 24" fill="none" stroke="currentColor" stroke-width="1.6" stroke-linecap="round" stroke-linejoin="round"><path d="M12 6c-1-2 0-4 3-4-1 2-2 3-3 4zM12 6c-3-2-7 0-7 5 0 6 4 11 7 11s7-5 7-11c0-5-4-7-7-5z"/></symbol>
<symbol id="i-fish" viewBox="0 0 24 24" fill="none" stroke="currentColor" stroke-width="1.6" stroke-linecap="round" stroke-linejoin="round"><path d="M3 12c4-6 12-6 16 0-4 6-12 6-16 0zM19 8c2 1 3 2 3 4s-1 3-3 4M16 12h.01"/></symbol>
<symbol id="i-coffee" viewBox="0 0 24 24" fill="none" stroke="currentColor" stroke-width="1.6" stroke-linecap="round" stroke-linejoin="round"><path d="M4 8h13v8a4 4 0 01-4 4H8a4 4 0 01-4-4V8zM17 11h2a3 3 0 010 6h-2M8 3v2M12 3v2"/></symbol>
<symbol id="i-egg" viewBox="0 0 24 24" fill="none" stroke="currentColor" stroke-width="1.6" stroke-linecap="round" stroke-linejoin="round"><path d="M12 2c-5 0-8 7-8 12a8 8 0 0016 0c0-5-3-12-8-12z"/></symbol>
<symbol id="i-dumbbell" viewBox="0 0 24 24" fill="none" stroke="currentColor" stroke-width="1.6" stroke-linecap="round" stroke-linejoin="round"><path d="M6 6v12M2 9v6M18 6v12M22 9v6M6 12h12"/></symbol>
<symbol id="i-shoe" viewBox="0 0 24 24" fill="none" stroke="currentColor" stroke-width="1.6" stroke-linecap="round" stroke-linejoin="round"><path d="M3 16h18l-2 4H3v-4zM3 16V8c0-2 2-4 4-4h2l3 6h6c2 0 3 1 4 3l1 3"/></symbol>
<symbol id="i-heart" viewBox="0 0 24 24" fill="none" stroke="currentColor" stroke-width="1.6" stroke-linecap="round" stroke-linejoin="round"><path d="M12 21s-8-5-8-11a5 5 0 019-3 5 5 0 019 3c0 6-8 11-8 11h-2z"/></symbol>
<symbol id="i-pulse" viewBox="0 0 24 24" fill="none" stroke="currentColor" stroke-width="1.6" stroke-linecap="round" stroke-linejoin="round"><path d="M3 12h4l2-6 4 12 2-9 2 3h4"/></symbol>
<symbol id="i-meditate" viewBox="0 0 24 24" fill="none" stroke="currentColor" stroke-width="1.6" stroke-linecap="round" stroke-linejoin="round"><circle cx="12" cy="6" r="3"/><path d="M5 21c2-5 5-7 7-7s5 2 7 7M3 17c2 0 4 1 5 3M21 17c-2 0-4 1-5 3"/></symbol>
<symbol id="i-bed" viewBox="0 0 24 24" fill="none" stroke="currentColor" stroke-width="1.6" stroke-linecap="round" stroke-linejoin="round"><path d="M3 8v12M21 12v8M3 14h18M3 12c0-1.5 1-3 3-3h7c2 0 3 1.5 3 3"/></symbol>
<symbol id="i-moon" viewBox="0 0 24 24" fill="none" stroke="currentColor" stroke-width="1.6" stroke-linecap="round" stroke-linejoin="round"><path d="M21 12.8A9 9 0 1111.2 3a7 7 0 009.8 9.8z"/></symbol>
<symbol id="i-sun" viewBox="0 0 24 24" fill="none" stroke="currentColor" stroke-width="1.6" stroke-linecap="round" stroke-linejoin="round"><circle cx="12" cy="12" r="4"/><path d="M12 2v2M12 20v2M2 12h2M20 12h2M5 5l1.5 1.5M17.5 17.5L19 19M5 19l1.5-1.5M17.5 6.5L19 5"/></symbol>
<symbol id="i-target" viewBox="0 0 24 24" fill="none" stroke="currentColor" stroke-width="1.6" stroke-linecap="round" stroke-linejoin="round"><circle cx="12" cy="12" r="9"/><circle cx="12" cy="12" r="5"/><circle cx="12" cy="12" r="1.5"/></symbol>
<symbol id="i-trophy" viewBox="0 0 24 24" fill="none" stroke="currentColor" stroke-width="1.6" stroke-linecap="round" stroke-linejoin="round"><path d="M6 4h12v5a6 6 0 01-12 0V4zM4 4h2v3a2 2 0 01-2 2M18 4h2v3a2 2 0 002 2M9 15h6v3l1 3H8l1-3v-3z"/></symbol>
<symbol id="i-zap" viewBox="0 0 24 24" fill="none" stroke="currentColor" stroke-width="1.6" stroke-linecap="round" stroke-linejoin="round"><path d="M13 2L3 14h7l-1 8 10-12h-7l1-8z"/></symbol>
<symbol id="i-sparkle" viewBox="0 0 24 24" fill="none" stroke="currentColor" stroke-width="1.6" stroke-linecap="round" stroke-linejoin="round"><path d="M12 3l2 6 6 2-6 2-2 6-2-6-6-2 6-2 2-6zM19 14l1 3 3 1-3 1-1 3-1-3-3-1 3-1 1-3z"/></symbol>
<symbol id="i-clock" viewBox="0 0 24 24" fill="none" stroke="currentColor" stroke-width="1.6" stroke-linecap="round" stroke-linejoin="round"><circle cx="12" cy="12" r="9"/><path d="M12 7v5l3 2"/></symbol>
<symbol id="i-calendar" viewBox="0 0 24 24" fill="none" stroke="currentColor" stroke-width="1.6" stroke-linecap="round" stroke-linejoin="round"><rect x="3" y="5" width="18" height="16" rx="2"/><path d="M3 9h18M8 3v4M16 3v4"/></symbol>
<symbol id="i-graph-up" viewBox="0 0 24 24" fill="none" stroke="currentColor" stroke-width="1.6" stroke-linecap="round" stroke-linejoin="round"><path d="M3 17l6-6 4 4 8-9M14 6h7v7"/></symbol>
<symbol id="i-graph-down" viewBox="0 0 24 24" fill="none" stroke="currentColor" stroke-width="1.6" stroke-linecap="round" stroke-linejoin="round"><path d="M3 7l6 6 4-4 8 9M14 18h7v-7"/></symbol>
<symbol id="i-bars" viewBox="0 0 24 24" fill="none" stroke="currentColor" stroke-width="1.8" stroke-linecap="round"><path d="M6 20V10M12 20V4M18 20v-7"/></symbol>

<!-- ═══ DEVICES & INTEGRATIONS ═══════════════════════════════════════ -->
<symbol id="i-watch" viewBox="0 0 24 24" fill="none" stroke="currentColor" stroke-width="1.6" stroke-linecap="round" stroke-linejoin="round"><rect x="6" y="6" width="12" height="14" rx="3"/><path d="M9 6V3h6v3M9 20v3h6v-3"/></symbol>
<symbol id="i-mobile" viewBox="0 0 24 24" fill="none" stroke="currentColor" stroke-width="1.6" stroke-linecap="round" stroke-linejoin="round"><rect x="6" y="2" width="12" height="20" rx="3"/><path d="M11 19h2"/></symbol>
<symbol id="i-link" viewBox="0 0 24 24" fill="none" stroke="currentColor" stroke-width="1.6" stroke-linecap="round" stroke-linejoin="round"><path d="M10 14a4 4 0 005 0l3-3a4 4 0 00-6-6l-1 1M14 10a4 4 0 00-5 0l-3 3a4 4 0 006 6l1-1"/></symbol>
<symbol id="i-wifi" viewBox="0 0 24 24" fill="none" stroke="currentColor" stroke-width="1.6" stroke-linecap="round" stroke-linejoin="round"><path d="M2 9a17 17 0 0120 0M5 13a12 12 0 0114 0M8.5 16.5a7 7 0 017 0M12 20h.01"/></symbol>
<symbol id="i-database" viewBox="0 0 24 24" fill="none" stroke="currentColor" stroke-width="1.6" stroke-linecap="round" stroke-linejoin="round"><ellipse cx="12" cy="5" rx="9" ry="3"/><path d="M3 5v6c0 1.7 4 3 9 3s9-1.3 9-3V5M3 11v6c0 1.7 4 3 9 3s9-1.3 9-3v-6"/></symbol>
<symbol id="i-shield" viewBox="0 0 24 24" fill="none" stroke="currentColor" stroke-width="1.6" stroke-linecap="round" stroke-linejoin="round"><path d="M12 2l8 3v7c0 5-4 9-8 10-4-1-8-5-8-10V5l8-3z"/></symbol>
<symbol id="i-globe" viewBox="0 0 24 24" fill="none" stroke="currentColor" stroke-width="1.6" stroke-linecap="round" stroke-linejoin="round"><circle cx="12" cy="12" r="9"/><path d="M3 12h18M12 3a14 14 0 010 18M12 3a14 14 0 000 18"/></symbol>
<symbol id="i-warning" viewBox="0 0 24 24" fill="none" stroke="currentColor" stroke-width="1.6" stroke-linecap="round" stroke-linejoin="round"><path d="M10.3 3.3l-8 14A2 2 0 004 20h16a2 2 0 001.7-2.7l-8-14a2 2 0 00-3.4 0zM12 9v4M12 17h.01"/></symbol>
<symbol id="i-tag" viewBox="0 0 24 24" fill="none" stroke="currentColor" stroke-width="1.6" stroke-linecap="round" stroke-linejoin="round"><path d="M21 12L13 4H4v9l8 8 9-9zM8 8h.01"/></symbol>
<symbol id="i-paperclip" viewBox="0 0 24 24" fill="none" stroke="currentColor" stroke-width="1.6" stroke-linecap="round" stroke-linejoin="round"><path d="M21 11l-9 9a5 5 0 01-7-7l9-9a3.5 3.5 0 015 5l-9 9a2 2 0 01-3-3l8-8"/></symbol>
<symbol id="i-temp" viewBox="0 0 24 24" fill="none" stroke="currentColor" stroke-width="1.6" stroke-linecap="round" stroke-linejoin="round"><path d="M14 14V5a2 2 0 10-4 0v9a4 4 0 104 0z"/></symbol>

<!-- ═══ SOCIAL ══════════════════════════════════════════════════════ -->
<symbol id="i-google" viewBox="0 0 24 24" fill="currentColor"><path d="M21.6 12.2c0-.7-.1-1.4-.2-2H12v3.8h5.4c-.2 1.3-.9 2.3-2 3v2.5h3.2c1.9-1.7 3-4.3 3-7.3z"/><path d="M12 22c2.7 0 5-.9 6.6-2.4l-3.2-2.5c-.9.6-2 .9-3.4.9-2.6 0-4.8-1.7-5.6-4H3.1v2.5C4.7 19.7 8.1 22 12 22z" opacity=".9"/><path d="M6.4 14c-.4-1.1-.4-2.4 0-3.5V8H3.1c-1.4 2.7-1.4 6 0 8.7l3.3-2.7z" opacity=".7"/><path d="M12 6c1.5 0 2.8.5 3.8 1.5l2.8-2.8C16.9 3.1 14.6 2 12 2 8.1 2 4.7 4.3 3.1 7.5l3.3 2.5c.8-2.3 3-4 5.6-4z" opacity=".8"/></symbol>
<symbol id="i-apple-logo" viewBox="0 0 24 24" fill="currentColor"><path d="M17 12.5c0-2.5 2-3.7 2.1-3.8-1.1-1.7-3-2-3.6-2-1.5-.2-3 .9-3.7.9-.8 0-2-.9-3.3-.9-1.7 0-3.3 1-4.2 2.5-1.8 3.1-.5 7.7 1.3 10.3.9 1.2 1.9 2.6 3.2 2.6s1.8-.8 3.3-.8 2 .8 3.3.8 2.3-1.3 3.1-2.5c1-1.5 1.4-2.9 1.4-3-.1 0-2.7-1-2.7-4zM14.6 5.1c.7-.8 1.1-2 1-3.1-1 0-2.2.7-2.9 1.5-.6.7-1.2 1.9-1 2.9 1.1.1 2.2-.5 2.9-1.3z"/></symbol>

</defs>
</svg>
