<svg xmlns="http://www.w3.org/2000/svg" width="3840" height="2160" viewBox="0 0 1200 675" role="img" data-generator="repo-native-vector" data-subject-safe-margin-pct="11.25"><defs>
    <linearGradient id="paper" x1="0" y1="0" x2="1" y2="1"><stop stop-color="#F7F4EC"/><stop offset="1" stop-color="#ECE7DC"/></linearGradient>
    <linearGradient id="body" x1="0" y1="0" x2="1" y2="1"><stop stop-color="#4B565C"/><stop offset=".55" stop-color="#273036"/><stop offset="1" stop-color="#171D20"/></linearGradient>
    <linearGradient id="muscle" x1="0" y1="0" x2="1" y2="1"><stop stop-color="#E68A82"/><stop offset="1" stop-color="#C84B57"/></linearGradient>
    <radialGradient id="halo"><stop stop-color="#FFFFFF" stop-opacity=".92"/><stop offset="1" stop-color="#FFFFFF" stop-opacity="0"/></radialGradient>
    <filter id="shadow" x="-30%" y="-30%" width="160%" height="160%"><feDropShadow dx="0" dy="12" stdDeviation="14" flood-color="#1D2529" flood-opacity=".13"/></filter>
  </defs><rect x="120" y="67.5" width="960" height="540" rx="58" fill="url(#paper)" stroke="#D8D1C4" stroke-width="3"/><ellipse cx="600" cy="345" rx="400" ry="240" fill="url(#halo)"/><path d="M210 542H990" stroke="#D8D1C4" stroke-width="3" stroke-linecap="round"/><g id="subject"><path d="M170 542H1030" stroke="#D8D1C4" stroke-width="3" stroke-linecap="round"/><path d="M220 130V525M980 130V525M180 130H260M940 130H1020" stroke="#273036" stroke-width="18" stroke-linecap="round"/><circle cx="600" cy="220" r="36" fill="url(#body)" stroke="#657078" stroke-width="4"/><path d="M607.2 212.8L620.88 220" stroke="#A1AAAE" stroke-width="4" stroke-linecap="round"/><path d="M535 270L665 270L645 410L555 410Z" fill="url(#body)" stroke="#657078" stroke-width="4" stroke-linejoin="round"/><path d="M540 290L465 330" fill="none" stroke="#39434A" stroke-width="34" stroke-linecap="round" stroke-linejoin="round"/><path d="M465 330L565 350" fill="none" stroke="#39434A" stroke-width="28" stroke-linecap="round" stroke-linejoin="round"/><path d="M660 290L735 330" fill="none" stroke="#39434A" stroke-width="34" stroke-linecap="round" stroke-linejoin="round"/><path d="M735 330L635 350" fill="none" stroke="#39434A" stroke-width="28" stroke-linecap="round" stroke-linejoin="round"/><path d="M220 160L465 330M980 160L735 330" stroke="#657078" stroke-width="5"/><path d="M575 410L540 520" fill="none" stroke="#39434A" stroke-width="42" stroke-linecap="round" stroke-linejoin="round"/><path d="M625 410L680 520" fill="none" stroke="#39434A" stroke-width="42" stroke-linecap="round" stroke-linejoin="round"/><path d="M545 286L590 327" fill="none" stroke="#C84B57" stroke-width="34" stroke-linecap="round" stroke-linejoin="round"/><path d="M655 286L610 327" fill="none" stroke="#C84B57" stroke-width="34" stroke-linecap="round" stroke-linejoin="round"/><path d="M535 292L470 328" fill="none" stroke="#C84B57" stroke-width="22" stroke-linecap="round" stroke-linejoin="round"/><path d="M665 292L730 328" fill="none" stroke="#C84B57" stroke-width="22" stroke-linecap="round" stroke-linejoin="round"/></g></svg>
