<svg xmlns="http://www.w3.org/2000/svg" width="3840" height="2160" viewBox="0 0 1200 675" role="img" data-generator="repo-native-vector" data-subject-safe-margin-pct="11.25"><defs>
    <linearGradient id="paper" x1="0" y1="0" x2="1" y2="1"><stop stop-color="#F7F4EC"/><stop offset="1" stop-color="#ECE7DC"/></linearGradient>
    <linearGradient id="body" x1="0" y1="0" x2="1" y2="1"><stop stop-color="#4B565C"/><stop offset=".55" stop-color="#273036"/><stop offset="1" stop-color="#171D20"/></linearGradient>
    <linearGradient id="muscle" x1="0" y1="0" x2="1" y2="1"><stop stop-color="#E68A82"/><stop offset="1" stop-color="#C84B57"/></linearGradient>
    <radialGradient id="halo"><stop stop-color="#FFFFFF" stop-opacity=".92"/><stop offset="1" stop-color="#FFFFFF" stop-opacity="0"/></radialGradient>
    <filter id="shadow" x="-30%" y="-30%" width="160%" height="160%"><feDropShadow dx="0" dy="12" stdDeviation="14" flood-color="#1D2529" flood-opacity=".13"/></filter>
  </defs><rect x="120" y="67.5" width="960" height="540" rx="58" fill="url(#paper)" stroke="#D8D1C4" stroke-width="3"/><ellipse cx="600" cy="345" rx="400" ry="240" fill="url(#halo)"/><path d="M210 542H990" stroke="#D8D1C4" stroke-width="3" stroke-linecap="round"/><g id="subject"><path d="M170 542H1030" stroke="#D8D1C4" stroke-width="3" stroke-linecap="round"/><g stroke="#273036" stroke-linecap="round"><path d="M350 145L850 145" stroke-width="12"/><path d="M385 111L385 179M402 101L402 189M815 111L815 179M798 101L798 189" stroke-width="14"/></g><circle cx="600" cy="245" r="38" fill="url(#body)" stroke="#657078" stroke-width="4"/><path d="M607.6 237.4L622.04 245" stroke="#A1AAAE" stroke-width="4" stroke-linecap="round"/><path d="M535 292L665 292L646 440L554 440Z" fill="url(#body)" stroke="#657078" stroke-width="4" stroke-linejoin="round"/><path d="M548 310L470 220" fill="none" stroke="#39434A" stroke-width="42" stroke-linecap="round" stroke-linejoin="round"/><path d="M470 220L470 145" fill="none" stroke="#39434A" stroke-width="32" stroke-linecap="round" stroke-linejoin="round"/><path d="M652 310L730 220" fill="none" stroke="#39434A" stroke-width="42" stroke-linecap="round" stroke-linejoin="round"/><path d="M730 220L730 145" fill="none" stroke="#39434A" stroke-width="32" stroke-linecap="round" stroke-linejoin="round"/><path d="M570 438L545 520" fill="none" stroke="#39434A" stroke-width="42" stroke-linecap="round" stroke-linejoin="round"/><path d="M630 438L655 520" fill="none" stroke="#39434A" stroke-width="42" stroke-linecap="round" stroke-linejoin="round"/><path d="M548 307L490 236" fill="none" stroke="#C84B57" stroke-width="28" stroke-linecap="round" stroke-linejoin="round"/><path d="M652 307L710 236" fill="none" stroke="#C84B57" stroke-width="28" stroke-linecap="round" stroke-linejoin="round"/><path d="M536 298Q600 264 664 298L646 330Q600 310 554 330Z" fill="#7155A2" opacity=".9"/></g></svg>
