<svg xmlns="http://www.w3.org/2000/svg" width="3840" height="2160" viewBox="0 0 1200 675" role="img" data-generator="repo-native-vector" data-subject-safe-margin-pct="11.25"><defs>
    <linearGradient id="paper" x1="0" y1="0" x2="1" y2="1"><stop stop-color="#F7F4EC"/><stop offset="1" stop-color="#ECE7DC"/></linearGradient>
    <linearGradient id="body" x1="0" y1="0" x2="1" y2="1"><stop stop-color="#4B565C"/><stop offset=".55" stop-color="#273036"/><stop offset="1" stop-color="#171D20"/></linearGradient>
    <linearGradient id="muscle" x1="0" y1="0" x2="1" y2="1"><stop stop-color="#E68A82"/><stop offset="1" stop-color="#C84B57"/></linearGradient>
    <radialGradient id="halo"><stop stop-color="#FFFFFF" stop-opacity=".92"/><stop offset="1" stop-color="#FFFFFF" stop-opacity="0"/></radialGradient>
    <filter id="shadow" x="-30%" y="-30%" width="160%" height="160%"><feDropShadow dx="0" dy="12" stdDeviation="14" flood-color="#1D2529" flood-opacity=".13"/></filter>
  </defs><rect x="120" y="67.5" width="960" height="540" rx="58" fill="url(#paper)" stroke="#D8D1C4" stroke-width="3"/><ellipse cx="600" cy="345" rx="400" ry="240" fill="url(#halo)"/><path d="M210 542H990" stroke="#D8D1C4" stroke-width="3" stroke-linecap="round"/><g id="subject"><path d="M170 542H1030" stroke="#D8D1C4" stroke-width="3" stroke-linecap="round"/><path d="M870 180V520M835 180H905M850 330H890" stroke="#273036" stroke-width="18" stroke-linecap="round"/><circle cx="540" cy="260" r="33" fill="url(#body)" stroke="#657078" stroke-width="4"/><path d="M546.6 253.4L559.14 260" stroke="#A1AAAE" stroke-width="4" stroke-linecap="round"/><path d="M500 295L600 310L625 420L515 410Z" fill="url(#body)" stroke="#657078" stroke-width="4" stroke-linejoin="round"/><path d="M590 325L690 360" fill="none" stroke="#39434A" stroke-width="42" stroke-linecap="round" stroke-linejoin="round"/><path d="M690 360L850 330" fill="none" stroke="#39434A" stroke-width="28" stroke-linecap="round" stroke-linejoin="round"/><path d="M520 405L430 450" fill="none" stroke="#39434A" stroke-width="42" stroke-linecap="round" stroke-linejoin="round"/><path d="M430 450L350 510" fill="none" stroke="#39434A" stroke-width="42" stroke-linecap="round" stroke-linejoin="round"/><path d="M600 420L700 470" fill="none" stroke="#39434A" stroke-width="42" stroke-linecap="round" stroke-linejoin="round"/><path d="M700 470L760 515" fill="none" stroke="#39434A" stroke-width="42" stroke-linecap="round" stroke-linejoin="round"/><path d="M590 322L685 358" fill="none" stroke="#C84B57" stroke-width="22" stroke-linecap="round" stroke-linejoin="round"/><path d="M505 300Q550 345 605 320L620 405Q555 380 518 400Z" fill="#2B8292" opacity=".92"/></g></svg>
